Patient4_TMGait_0pt3_02_left_10_EMG.mot
version=1
nRows=33
nColumns=33
inDegrees=no
endheader
time	1LAddLong	2LGlutMax	3LGlutMed	4LIliopsoas	5LSemiMemb	6LBicFemLong	7LRecFem	8LVastMed	9LVastLat	10LGasMed	11LTibAnt	12lTibPost	13LPeroneusLong	14LSol	15LExtDigLong	16LFlexDigLong	17RAddLong	18RGlutMax	19RGlutMed	20RIliopsoas	21RSemiMemb	22RBicFemLong	23RRecFem	24RVastMed	25RVastLat	26RGasMed	27RTibAnt	28RTibPost	29RPeroneusLong	30RSol	31RExtDigLong	32RFlexDigLong
19.41	0.01236	-0.12848	-0.064087	0.033875	0.021362	-0.091705	-0.017242	0.006866	-0.026855	-0.056152	-0.15884	-0.003052	-0.004578	0.040131	-0.16647	0.012054	0.016479	-0.10284	0.23911	-0.059204	-0.11688	0.07019	0.13275	-0.21164	-0.28061	0.004425	0.077209	0.00824	0.13962	-0.1297	-0.000305	-0.017242
19.411	0.009766	-0.12497	-0.026855	0.031128	0.022888	-0.11353	-0.016785	0.000763	-0.016327	-0.098724	0.10025	0.009613	0.049744	0.046997	-0.34363	0.004578	0.044861	-0.076294	0.074158	0.029449	0.22812	0.046082	-0.53619	-0.065155	-0.31937	-0.000763	0.079651	0.031891	0.11765	-0.20874	-0.000305	-0.0177
19.412	0.006104	-0.098572	0.006256	0.003052	0.016937	-0.15045	-0.027924	-0.001221	0.005798	-0.15564	-0.086823	0.005035	0.025177	0.092773	0.22598	0.019989	0.035553	-0.09552	0.062256	0.093994	0.24902	-0.091705	-0.95886	-0.009003	-0.18158	-0.005493	0.074463	-0.032043	-0.077362	-0.22736	0.000458	-0.007629
19.413	0.010376	-0.14786	-0.075378	-0.049591	0.02182	-0.16022	-0.024261	-0.004883	0.008545	-0.072327	-0.16724	0.00351	-0.040741	0.033264	0.16632	0.012817	0.006866	-0.10956	0.49103	0.047913	-0.003357	-0.093842	-0.93643	-0.20645	-0.21378	-0.00351	0.050354	-0.31555	0.067444	-0.1886	-0.000305	-0.015564
19.414	0.012512	-0.15961	-0.088959	-0.035553	0.023346	-0.15228	-0.039063	0.002441	0.011902	-0.06485	0.10925	0.005798	-0.086365	0.00946	0.16373	0.002136	-0.017242	-0.1445	0.50446	-0.1471	-0.00824	-0.054169	-1.032	-0.49057	-0.36057	-0.001373	0.049133	0.13092	0.19073	-0.14847	0.000763	-0.009308
19.415	0.012207	-0.17166	-0.04715	-0.02243	0.020447	-0.13702	-0.045776	0.005646	0.016479	-0.12466	0.3714	0.00412	-0.044098	0.050049	0.30548	-0.003815	-0.05249	-0.10346	0.40344	-0.079041	-0.016022	-0.03006	-0.91202	-0.58105	-0.15671	0.001831	0.052643	0.18707	0.30197	-0.06897	-0.000305	-0.00824
19.416	0.012054	-0.15854	-0.006714	-0.023956	0.017548	-0.1355	-0.053253	-0.001526	0.010681	-0.17532	0.4187	0.000916	0.004883	0.099182	-0.43457	-0.008087	-0.11627	-0.14481	-0.34134	0.07019	-0.052185	-0.005035	-0.83832	-0.27786	-0.031738	0.001068	0.0737	0.042114	0.12756	-0.11169	0.000763	-0.007324
19.417	0.023346	-0.1799	0.006409	-0.026703	0.028687	-0.11292	-0.057373	-0.001526	0.007935	-0.1622	-0.17975	0.009918	0.028381	0.040894	-0.62317	-0.007935	-0.10056	-0.18845	-0.40848	0.16586	-0.1297	-0.015259	-0.7373	0.032196	0.030212	0.005493	0.040131	0.002899	-0.12497	-0.19974	0	-0.00946
19.418	0.02121	-0.16602	-0.038605	-0.007782	0.029144	-0.12909	-0.072174	-0.001526	-0.006256	-0.10712	-0.17853	-0.002441	-0.072327	-0.047455	-0.24857	0.001221	-0.095215	-0.12253	-0.054474	0.14832	-0.13641	-0.055389	-0.6694	0.15457	0.044403	0.019531	0.023346	-0.003052	-0.084991	-0.36072	-0.006561	-0.012054
19.419	0.019073	-0.16113	-0.031891	0.011902	0.034332	-0.12268	-0.064697	-0.003357	-0.007629	-0.097656	-0.25177	0.003204	-0.037689	-0.043182	-0.28885	-0.010986	-0.073242	-0.16586	0.25803	0.08255	-0.043335	-0.14633	-0.56015	0.11993	0.043945	0.012207	0.038147	-0.010986	-0.11704	-0.48477	-0.001831	-0.016479
19.42	0.019073	-0.16037	-0.038605	0.015106	0.031586	-0.077667	-0.057983	0.001221	-0.019073	-0.10696	-0.14923	0.00824	-0.019989	-0.041199	-0.1593	-0.002289	-0.031586	-0.1561	0.16922	0.012817	-0.011139	-0.089111	-0.44647	0.066223	0.025482	0.02533	0.037689	-0.014191	-0.52933	-0.4187	0.00061	-0.010834
19.421	0.007629	-0.15884	-0.057983	0.018005	0.025024	-0.032806	-0.013885	0.000305	-0.026855	-0.14084	0.046234	-0.002136	0.056152	-0.02243	-0.08255	-0.02243	-0.012665	-0.19592	0.13794	-0.073242	-0.074463	-0.052643	-0.31693	0.076141	-0.008392	0.045929	0.063934	-0.007629	-0.811	-0.33768	-0.00412	-0.009766
19.422	0.009918	-0.15579	-0.020752	0.030518	0.030823	-0.027008	-0.019836	0.007324	-0.028839	-0.13107	0.011902	0.01297	0.035858	-0.001526	0.001526	-0.007782	-0.048218	-0.096588	0.24567	-0.029907	-0.2475	-0.02655	-0.15915	0.074615	-0.078278	0.070801	0.065002	-0.011444	-0.69534	-0.11017	0.001373	-0.014343
19.423	0.006866	-0.17899	-0.025635	0.055389	0.019836	-0.024872	-0.012207	0.004578	-0.036621	-0.15457	-0.036469	0.003357	0.013733	0.051117	1.0716	-0.002594	-0.14587	-0.082397	0.47424	0.08728	-0.11261	0.029449	-0.11734	-0.22873	0.091705	0.068512	-0.003357	-0.032349	-0.20004	0.37628	-0.000153	-0.016327
19.424	0.004578	-0.20172	-0.048981	0.07019	0.023804	-0.018005	0.009613	0.00412	-0.03418	-0.14877	0.03891	0.002747	-0.015106	0.11063	-0.26184	0.000153	-0.14908	-0.12894	0.59174	0.058594	0.36148	-0.080566	-0.13275	-0.27634	0.25055	-0.004272	0.03006	-0.52307	-0.40543	0.31784	0.003357	-0.019684
19.425	0.010223	-0.20432	-0.099335	0.020294	0.00824	0.025787	0.008545	0.013885	-0.037384	-0.15991	0.11383	0.003815	-0.014954	0.086975	-0.007324	0.002594	-0.10559	-0.11795	0.31143	0.071716	0.33814	-0.077362	-0.010529	-0.28458	0.18173	-0.058594	0.049438	0.31754	-0.55618	-0.24689	-0.001831	-0.023651
19.426	-0.006104	-0.16983	-0.12497	-0.019073	0.011597	0.036469	0.010071	0.009918	-0.040436	-0.15915	0.068665	0.006714	-0.004578	0.019379	-0.10986	-0.003967	-0.091553	-0.16251	0.033417	0.05127	0.24689	0.0177	0.11688	0.32654	0.32364	-0.08606	0.017395	-0.21591	-0.24567	-0.53177	0.000458	-0.020752
19.427	0.003662	-0.14526	-0.058289	-0.014954	0.01236	0.013428	-0.003357	0.029755	-0.032349	-0.11749	-0.11429	0.001526	-0.047455	-0.17578	-0.10727	-0.011749	-0.081024	-0.17441	-0.39261	-0.025482	0.19867	0.12878	0.19058	0.98023	0.33157	-0.074768	-0.036621	-0.068817	0.1651	-0.54535	0.002594	-0.015717
19.428	-0.00473	-0.095367	-0.044098	-0.002594	0.00946	0.011292	0.011139	-0.026398	-0.02182	-0.10742	-0.13825	0.001221	-0.038605	-0.23575	-0.24796	-0.005341	-0.047455	-0.11383	-0.39703	-0.10391	0.1561	0.11826	0.096893	0.53909	0.17334	-0.049133	-0.068054	0.43808	0.52978	0.13611	-0.00061	-0.012512
19.429	0.000305	-0.045471	0.06012	0.005798	0.007172	-0.018158	0.000916	-0.005341	-0.025177	-0.11032	-0.24002	0.00473	0.034485	-0.16281	0.61554	-0.000916	0.004578	-0.025177	-0.31906	-0.059814	0.099945	0.041199	-0.103	0.057678	-0.074615	-0.015259	-0.088501	0.28976	0.60226	0.46234	-0.00061	-0.009003
19.43	0.004272	-0.027466	-0.000458	-0.020905	0.010529	-0.048828	0.030365	0.009003	-0.019531	-0.13138	-0.019684	0.005188	0.054474	-0.12421	0.14938	-0.006714	0.037231	0.004272	-0.031433	-0.090179	0.046692	-0.005798	-0.24994	-0.1091	-0.29755	-0.013428	-0.066071	0.11734	0.59906	0.68695	0.000916	-0.003815
19.431	0.000153	0.003357	0.017853	-0.020599	0.005493	-0.055237	0.043335	0.006409	-0.024872	-0.13763	0.13687	-0.003204	0.033569	-0.08606	-0.30533	-0.004883	0.030518	0.009308	0.29755	-0.1265	0.000916	-0.000916	-0.49774	-0.15945	-0.36316	-0.016785	-0.06134	-0.1474	0.55161	0.58075	-0.001221	-0.000305
19.432	0.005798	0.012665	-0.06134	0.062408	0.005951	-0.058746	0.03067	0.005188	-0.00824	-0.12665	0.026703	-0.000916	-0.002594	-0.003357	-0.080566	0.003662	0.028381	-0.036011	-0.39398	0.067139	-0.090637	0.019073	-0.26627	0.14038	-0.38406	-0.014648	-0.039978	-0.21072	0.37964	0.29739	0.001221	-0.006409
19.433	0.006409	0.018921	-0.062103	0.061798	0.010529	-0.055389	0.031433	0.004883	-0.007172	-0.10681	0.032349	0.007172	-0.056915	-0.042419	-0.32089	-0.003662	0.062256	-0.028229	-0.43335	0.057983	0.028687	-0.05661	0.44327	0.90347	-0.21362	-0.012817	-0.023651	0.1181	0.30563	0.22217	-0.000305	-0.001678
19.434	0.01358	0.050049	-0.09613	0.013885	0.011902	-0.059052	0.024109	0.001373	-0.007019	-0.091095	0.10407	0.003052	-0.052032	-0.069885	0.13809	0.00473	0.078735	0.003204	-0.11398	0.039368	0.15167	-0.13153	0.58487	0.67108	-0.28488	-0.00061	-0.012817	0.16556	0.33737	-0.045166	-0.001984	-0.001678
19.435	0.020294	0.088196	-0.13046	0.009308	0.009918	-0.032654	0.03952	0.00473	-0.00061	-0.08606	0.09964	0.002136	-0.03418	-0.035095	0.16159	-0.014801	0.064392	-0.052338	0.31082	0.04715	0.068054	-0.10681	0.55985	0.21179	-0.22522	0.00061	-0.009918	0.049896	0.27115	-0.035248	0.001526	-0.003967
19.436	0.012054	0.10544	-0.12497	-0.004578	0.010376	-0.021362	0.055084	0.009918	-0.005951	-0.112	0.1738	0.002899	0.046539	-0.01236	0.87723	0.002747	0.054932	-0.011444	0.31296	0.00885	-0.022278	-0.091858	0.39825	-0.30304	-0.17319	-0.001831	-0.012665	-0.007629	0.13748	0.28503	-0.00061	-0.007019
19.437	0	0.13062	-0.15656	-0.002136	0.00473	-0.066528	0.056305	0.002899	0.001678	-0.11871	-0.056	-0.001221	0.098877	0.007477	0.33844	-0.00473	0.049896	0.021362	0.095978	0.039063	-0.16296	-0.078735	-0.09964	-0.6955	-0.159	0.001221	-0.006714	-0.036774	0.10651	0.2298	0.00061	-0.011597
19.438	0.009613	0.15671	-0.20813	0.003052	0.010986	-0.086975	0.021973	0.006866	0.008545	-0.10162	0.004425	-0.001068	-0.023651	0.053711	-0.34943	-0.001068	0.045013	0.036926	-0.24551	0.037842	-0.066071	-0.041351	-0.76416	-0.54871	-0.013428	0.007019	0.006866	-0.027924	0.11276	0.065918	0.002289	-0.013123
19.439	0.009918	0.14008	-0.27008	-0.000916	0.015106	-0.086365	0.018768	0.004883	0.016937	-0.098877	-0.031281	0.005035	-0.012512	0.003967	-0.23575	0.008087	0.03418	0.077667	-0.1828	-0.070496	-0.084229	-0.051422	-0.78262	-0.31235	0.21942	0.000305	0.028534	-0.024109	0.16052	-0.042725	0.001221	-0.014801
19.44	0.006409	0.18433	-0.18402	-0.009308	0.009766	-0.061493	0.018005	0.01297	0.015564	-0.12604	-0.21713	0.006104	0.06958	0.076752	-0.33905	-0.009918	0.053711	0.086823	0.26779	-0.067596	-0.063324	-0.086517	-0.36682	-0.086212	0.45441	0.00412	0.067444	-0.024261	0.11673	-0.052338	0.002289	-0.012207
19.441	0.006866	0.19196	-0.06897	0.000458	0.00061	-0.050201	0.014648	0.006714	0.018921	-0.090332	-0.022125	0.006866	0.036469	0.098267	0.11673	-0.008087	0.066223	0.067139	0.088501	0.051117	-0.072632	-0.077057	0.057831	0.050964	0.69443	-0.006409	0.15839	-0.034485	-0.025482	-0.13123	0.001068	-0.018921
19.442	0.000763	0.16907	0.072021	0.010071	0.005341	-0.062866	0.042572	0.008392	0.016785	-0.11627	0.22751	-0.000153	-0.012817	0.19226	0.27756	-0.003357	0.046844	0.037079	0.062714	0.083771	-0.030518	-0.061188	0.25055	-0.046539	0.75836	0.014343	0.088348	-0.034027	-0.21027	-0.41443	0.000305	-0.014191
